<svg xmlns="http://www.w3.org/2000/svg" width="110.001" height="105" viewBox="0 0 110.001 105">
  <path id="Intersection_12" data-name="Intersection 12" d="M3.106,105A82.56,82.56,0,0,1,110,4.695V92a13,13,0,0,1-13,13Z" fill="#5482ff"/>
  <g id="Group_22" data-name="Group 22" transform="translate(44.972 43.036)">
    <ellipse id="Ellipse_25" data-name="Ellipse 25" cx="3" cy="2.5" rx="3" ry="2.5" transform="translate(17.028 39.964)" fill="#d8fffa"/>
    <circle id="Ellipse_26" data-name="Ellipse 26" cx="2.5" cy="2.5" r="2.5" transform="translate(32.028 39.964)" fill="#d8fffa"/>
    <path id="Path_23" data-name="Path 23" d="M35.292,12.146A12.146,12.146,0,1,1,23.146,0,12.16,12.16,0,0,1,35.292,12.146Zm-5.606,0a1.869,1.869,0,0,0-1.869-1.869h-2.8v-2.8a1.869,1.869,0,1,0-3.737,0v2.8h-2.8a1.869,1.869,0,1,0,0,3.737h2.8v2.8a1.869,1.869,0,1,0,3.737,0v-2.8h2.8A1.869,1.869,0,0,0,29.686,12.146Z" transform="translate(9.555 0)" fill="#d8fffa"/>
    <path id="Path_24" data-name="Path 24" d="M16.818,10.409c0-.316.028-.624.047-.934H11.883L11.172,6.1A5.165,5.165,0,0,0,6.166,2.021L1.407,2H1.4A1.4,1.4,0,0,0,1.4,4.8l4.757.021A2.349,2.349,0,0,1,8.429,6.677l.944,4.487,3.382,16.063H11.679a4.2,4.2,0,1,0,0,8.409H39.708a1.4,1.4,0,0,0,0-2.8H11.679a1.4,1.4,0,0,1,0-2.8H39.708a1.4,1.4,0,0,0,1.372-1.114l1.243-5.9A15.781,15.781,0,0,1,32.7,26.292,15.9,15.9,0,0,1,16.818,10.409Z" transform="translate(0 1.737)" fill="#d8fffa"/>
  </g>
</svg>
