<svg xmlns="http://www.w3.org/2000/svg" width="47.012" height="47.012" viewBox="0 0 47.012 47.012">
  <g id="Group_1" data-name="Group 1" transform="translate(-72 -585)">
    <ellipse id="Ellipse_25" data-name="Ellipse 25" cx="3" cy="2.5" rx="3" ry="2.5" transform="translate(90 627.012)" fill="#fafafa"/>
    <circle id="Ellipse_26" data-name="Ellipse 26" cx="2.5" cy="2.5" r="2.5" transform="translate(106 627.012)" fill="#fafafa"/>
    <path id="Path_23" data-name="Path 23" d="M36.465,12.732A12.732,12.732,0,1,1,23.732,0,12.747,12.747,0,0,1,36.465,12.732Zm-5.876,0a1.96,1.96,0,0,0-1.959-1.959H25.691V7.835a1.959,1.959,0,1,0-3.918,0v2.938H18.835a1.959,1.959,0,1,0,0,3.918h2.938v2.938a1.959,1.959,0,1,0,3.918,0V14.691h2.938A1.96,1.96,0,0,0,30.588,12.732Z" transform="translate(82.547 585)" fill="#fafafa"/>
    <path id="Path_24" data-name="Path 24" d="M17.629,10.815c0-.331.029-.654.049-.979H12.456L11.712,6.3A5.414,5.414,0,0,0,6.464,2.022L1.475,2H1.469a1.469,1.469,0,0,0-.006,2.938L6.45,4.96A2.462,2.462,0,0,1,8.836,6.9l.989,4.7,3.545,16.838H12.243a4.407,4.407,0,0,0,0,8.815H41.625a1.469,1.469,0,0,0,0-2.938H12.243a1.469,1.469,0,0,1,0-2.938H41.625a1.471,1.471,0,0,0,1.438-1.167l1.3-6.184a16.543,16.543,0,0,1-10.086,3.434A16.669,16.669,0,0,1,17.629,10.815Z" transform="translate(72 586.918)" fill="#fafafa"/>
  </g>
</svg>
