<svg xmlns="http://www.w3.org/2000/svg" xmlns:xlink="http://www.w3.org/1999/xlink" width="2200.19" height="1407.482" viewBox="0 0 2200.19 1407.482">
  <defs>
    <filter id="Path_27" x="0" y="96.536" width="1890.18" height="1259.903" filterUnits="userSpaceOnUse">
      <feOffset dy="3" input="SourceAlpha"/>
      <feGaussianBlur stdDeviation="30" result="blur"/>
      <feFlood flood-opacity="0.161"/>
      <feComposite operator="in" in2="blur"/>
      <feComposite in="SourceGraphic"/>
    </filter>
    <filter id="Path_25" x="76" y="96.536" width="1890.18" height="1259.903" filterUnits="userSpaceOnUse">
      <feOffset dy="3" input="SourceAlpha"/>
      <feGaussianBlur stdDeviation="30" result="blur-2"/>
      <feFlood flood-opacity="0.161"/>
      <feComposite operator="in" in2="blur-2"/>
      <feComposite in="SourceGraphic"/>
    </filter>
    <filter id="Path_26" x="118.913" y="0" width="2081.277" height="1407.482" filterUnits="userSpaceOnUse">
      <feOffset dy="3" input="SourceAlpha"/>
      <feGaussianBlur stdDeviation="30" result="blur-3"/>
      <feFlood flood-opacity="0.161"/>
      <feComposite operator="in" in2="blur-3"/>
      <feComposite in="SourceGraphic"/>
    </filter>
  </defs>
  <g transform="matrix(1, 0, 0, 1, 0, 0)" filter="url(#Path_27)">
    <path id="Path_27-2" data-name="Path 27" d="M616.991-922S721.522,94.333,1833.125,155.522s0-1077.522,0-1077.522Z" transform="translate(-526.99 1105.54)" fill="#ffdaa2"/>
  </g>
  <g transform="matrix(1, 0, 0, 1, 0, 0)" filter="url(#Path_25)">
    <path id="Path_25-2" data-name="Path 25" d="M616.991-922S721.522,94.333,1833.125,155.522s0-1077.522,0-1077.522Z" transform="translate(-450.99 1105.54)" fill="#ffc063"/>
  </g>
  <g transform="matrix(1, 0, 0, 1, 0, 0)" filter="url(#Path_26)">
    <path id="Path_26-2" data-name="Path 26" d="M616.991-922S729.734,143.833,1928.667,208s0-1130,0-1130Z" transform="translate(-396.22 975.45) rotate(3)" fill="#ff9f0d"/>
  </g>
</svg>
