<svg xmlns="http://www.w3.org/2000/svg" xmlns:xlink="http://www.w3.org/1999/xlink" width="1920" height="1076" viewBox="0 0 1920 1076">
  <defs>
    <clipPath id="clip-path">
      <rect id="Rectangle_147" data-name="Rectangle 147" width="1920" height="1076" fill="#fff" stroke="#707070" stroke-width="1"/>
    </clipPath>
    <filter id="Path_27" x="625.991" y="-87" width="1890.18" height="1259.903" filterUnits="userSpaceOnUse">
      <feOffset dy="3" input="SourceAlpha"/>
      <feGaussianBlur stdDeviation="30" result="blur"/>
      <feFlood flood-opacity="0.161"/>
      <feComposite operator="in" in2="blur"/>
      <feComposite in="SourceGraphic"/>
    </filter>
    <filter id="Path_25" x="701.991" y="-87" width="1890.18" height="1259.903" filterUnits="userSpaceOnUse">
      <feOffset dy="3" input="SourceAlpha"/>
      <feGaussianBlur stdDeviation="30" result="blur-2"/>
      <feFlood flood-opacity="0.161"/>
      <feComposite operator="in" in2="blur-2"/>
      <feComposite in="SourceGraphic"/>
    </filter>
    <filter id="Path_26" x="744.904" y="-183.536" width="2081.277" height="1407.482" filterUnits="userSpaceOnUse">
      <feOffset dy="3" input="SourceAlpha"/>
      <feGaussianBlur stdDeviation="30" result="blur-3"/>
      <feFlood flood-opacity="0.161"/>
      <feComposite operator="in" in2="blur-3"/>
      <feComposite in="SourceGraphic"/>
    </filter>
  </defs>
  <g id="Mask_Group_1" data-name="Mask Group 1" clip-path="url(#clip-path)">
    <g id="Group_25" data-name="Group 25">
      <g transform="matrix(1, 0, 0, 1, 0, 0)" filter="url(#Path_27)">
        <path id="Path_27-2" data-name="Path 27" d="M616.991-922S721.522,94.333,1833.125,155.522s0-1077.522,0-1077.522Z" transform="translate(99 922)" fill="#ffc59e"/>
      </g>
      <g transform="matrix(1, 0, 0, 1, 0, 0)" filter="url(#Path_25)">
        <path id="Path_25-2" data-name="Path 25" d="M616.991-922S721.522,94.333,1833.125,155.522s0-1077.522,0-1077.522Z" transform="translate(175 922)" fill="#ffa163"/>
      </g>
      <g transform="matrix(1, 0, 0, 1, 0, 0)" filter="url(#Path_26)">
        <path id="Path_26-2" data-name="Path 26" d="M616.991-922S729.734,143.833,1928.667,208s0-1130,0-1130Z" transform="translate(229.78 791.91) rotate(3)" fill="#ff944d"/>
      </g>
    </g>
  </g>
</svg>
