<svg xmlns="http://www.w3.org/2000/svg" width="86.484" height="86.485" viewBox="0 0 86.484 86.485">
  <g id="placeholder_1_" data-name="placeholder (1)" transform="translate(-0.001)">
    <g id="Group_3" data-name="Group 3" transform="translate(0.001)">
      <g id="Group_2" data-name="Group 2" transform="translate(0)">
        <circle id="Ellipse_32" data-name="Ellipse 32" cx="6.962" cy="6.962" r="6.962" transform="translate(36.407 24.915)" fill="#ff944d"/>
        <path id="Path_29" data-name="Path 29" d="M43.242,0A43.242,43.242,0,1,0,86.485,43.242,43.242,43.242,0,0,0,43.242,0Zm-.09,19.8.091,0,.091,0A13.485,13.485,0,0,1,56.547,33.224c0,8.91-9.52,17.933-13.3,21.166-.253-.216-.533-.46-.833-.727L42.4,53.65C38.209,49.929,29.94,41.529,29.94,33.224A13.485,13.485,0,0,1,43.153,19.8Zm.278,47.156c-7.975,0-16.049-2.288-16.049-6.659,0-3.068,3.975-5.108,9.1-6.053.991,1,1.93,1.875,2.753,2.609-5.583.624-8.863,2.391-8.863,3.443,0,1.293,4.957,3.668,13.058,3.668S56.49,61.587,56.49,60.295c0-1.074-3.419-2.885-9.2-3.474.831-.742,1.776-1.629,2.775-2.636,5.279.919,9.419,2.979,9.419,6.111C59.48,64.667,51.406,66.954,43.431,66.954Z" transform="translate(-0.001)" fill="#ff944d"/>
      </g>
    </g>
  </g>
</svg>
