<svg xmlns="http://www.w3.org/2000/svg" width="86" height="86" viewBox="0 0 86 86">
  <g id="telephone" transform="translate(0 -0.628)">
    <circle id="Ellipse_33" data-name="Ellipse 33" cx="43" cy="43" r="43" transform="translate(0 0.628)" fill="#ff944d"/>
    <path id="Path_30" data-name="Path 30" d="M158.025,145.322a29.892,29.892,0,0,1-13.239-3.027,2.712,2.712,0,0,0-3.628,1.256l-1.949,4.034a38.125,38.125,0,0,1-14.062-14.062l4.039-1.949a2.712,2.712,0,0,0,1.256-3.628,29.789,29.789,0,0,1-3.032-13.239A2.708,2.708,0,0,0,124.7,112h-10A2.708,2.708,0,0,0,112,114.707a46.077,46.077,0,0,0,46.025,46.025,2.708,2.708,0,0,0,2.707-2.707v-10A2.708,2.708,0,0,0,158.025,145.322Z" transform="translate(-93.048 -93.056)" fill="#fafafa"/>
  </g>
</svg>
